# xmcd CD database file
#
# Track frame offsets:
#	150
#	19445
#	44684
#	70726
#	85977
#	104709
#	125158
#	146606
#	163641
#	182595
#	201499
#	222639
#	245661
#	255487
#	280079
#
# Disc length: 4036 seconds
#
# Revision: 0
# Processed by: cddbd v1.5.1PL0 Copyright (c) Steve Scherf et al.
# Submitted via: CDex 1.51
#
DISCID=f30fc20f
DTITLE=Galaxy - L'insécurité
DYEAR=2003
DGENRE=Jazz
TTITLE0=L'insécurité
TTITLE1=La Chance
TTITLE2=Take care!
TTITLE3=La Musique
TTITLE4=Sedde
TTITLE5=Seifu
TTITLE6=Mame Khalifa
TTITLE7=Mamadou Vendeur
TTITLE8=Rassoul
TTITLE9=Mao N'Dieme
TTITLE10=So No No La
TTITLE11=Sosalasso
TTITLE12=La Famille
TTITLE13=Rimou
TTITLE14=Lamine Gueye
EXTD=YEAR: 2003
EXTT0=
EXTT1=
EXTT2=
EXTT3=
EXTT4=
EXTT5=
EXTT6=
EXTT7=
EXTT8=
EXTT9=
EXTT10=
EXTT11=
EXTT12=
EXTT13=
EXTT14=
PLAYORDER=
